<?xml version="1.0" encoding="UTF-8" standalone="no"?>
<!-- Created with Inkscape (http://www.inkscape.org/) -->

<svg
   xmlns:dc="http://purl.org/dc/elements/1.1/"
   xmlns:cc="http://creativecommons.org/ns#"
   xmlns:rdf="http://www.w3.org/1999/02/22-rdf-syntax-ns#"
   xmlns:svg="http://www.w3.org/2000/svg"
   xmlns="http://www.w3.org/2000/svg"
   xmlns:sodipodi="http://sodipodi.sourceforge.net/DTD/sodipodi-0.dtd"
   xmlns:inkscape="http://www.inkscape.org/namespaces/inkscape"
   version="1.1"
   id="svg10"
   width="5.1595159"
   height="5.9613461"
   viewBox="0 0 4.6435643 5.3652115"
   sodipodi:docname="logo.svg"
   inkscape:version="0.92.1 r15371">
  <metadata
     id="metadata16">
    <rdf:RDF>
      <cc:Work
         rdf:about="">
        <dc:format>image/svg+xml</dc:format>
        <dc:type
           rdf:resource="http://purl.org/dc/dcmitype/StillImage" />
        <dc:title></dc:title>
      </cc:Work>
    </rdf:RDF>
  </metadata>
  <defs
     id="defs14" />
  <sodipodi:namedview
     pagecolor="#ffffff"
     bordercolor="#666666"
     borderopacity="1"
     objecttolerance="10"
     gridtolerance="10"
     guidetolerance="10"
     inkscape:pageopacity="0"
     inkscape:pageshadow="2"
     inkscape:window-width="1920"
     inkscape:window-height="1001"
     id="namedview12"
     showgrid="false"
     scale-x="0.9"
     fit-margin-top="0"
     fit-margin-left="0"
     fit-margin-right="0"
     fit-margin-bottom="0"
     inkscape:zoom="22.853691"
     inkscape:cx="13.80181"
     inkscape:cy="-8.9694554"
     inkscape:window-x="-9"
     inkscape:window-y="-9"
     inkscape:window-maximized="1"
     inkscape:current-layer="svg10" />
  <path
     style="fill:#e0be6a;stroke-width:0.10659905"
     d="M 2.0182611,5.2382399 C 1.9167849,5.1134918 1.9449289,5.0021178 2.1594154,4.6796521 2.3067616,4.4581273 2.4273177,4.1625086 2.4273177,4.0227219 c 0,-0.2619946 0.062209,-0.2857253 0.7897663,-0.3012681 C 3.7106736,3.7109098 3.6811567,3.4034909 3.152399,3.0477588 L 2.7033733,2.7456682 3.222263,2.7118627 C 3.8133014,2.6733566 4.0117399,2.5492625 4.0071417,2.2210362 4.0039798,1.9953646 4.0021509,1.9951603 3.8842417,2.2073019 3.6490172,2.6305153 3.3805757,2.7007733 3.369995,2.3418935 3.3628998,2.1012551 3.3621326,2.1011432 3.2556166,2.3252376 3.1778557,2.4888355 3.0778638,2.5370933 2.8918252,2.5008094 2.5054893,2.4254607 2.4898736,2.2893445 2.8460093,2.1014492 3.1068265,1.9638433 3.1641194,1.8683297 3.1555467,1.5854156 3.1462089,1.27725 3.1370865,1.2671669 3.0743562,1.4956738 3.0354873,1.6372609 2.8903665,1.82987 2.7518656,1.9236939 L 2.5000458,2.0942828 2.5575581,1.6124261 C 2.58919,1.3474048 2.6468735,1.0518124 2.6857437,0.95555406 2.7309133,0.84369576 2.6560118,0.66884608 2.4781824,0.47102441 L 2.1999481,0.1615099 2.3833057,0.50134558 c 0.1574568,0.29183078 0.1642532,0.38689218 0.048113,0.67295792 -0.074384,0.1832172 -0.1711586,0.3331222 -0.215054,0.3331222 -0.1763913,0 -0.3461514,-0.349591 -0.368822,-0.75952393 C 1.8290238,0.4130327 1.8736582,0.27838044 2.0433842,0.1570917 2.164289,0.07069127 2.3220769,0 2.3940237,0 c 0.1896089,0 2.2495405,2.4735055 2.2495405,2.7011824 0,0.2672895 -2.0207979,2.621331 -2.2840954,2.6607585 C 2.2415159,5.3796037 2.0879724,5.3239383 2.0182611,5.2382399 Z M 0.3391912,3.2106245 C 0.152636,2.962978 0,2.7259528 0,2.6839018 0,2.5391807 0.68615,1.7338798 0.8141874,1.7283297 c 0.070513,-0.00306 0.1811075,0.095292 0.2457645,0.2185515 0.064657,0.12326 0.2681648,0.2909489 0.4522392,0.372642 0.1840746,0.081693 0.2543746,0.1504293 0.1562222,0.1527473 C 1.3873473,2.4789086 1.334498,2.6846314 1.5891669,2.7807478 1.8087133,2.8636084 1.7978584,2.8871192 1.3658796,3.2643667 1.1161509,3.4824551 0.8593023,3.660891 0.7951049,3.660891 c -0.064197,0 -0.2693585,-0.2026199 -0.4559137,-0.4502665 z M 2.1826541,2.2986478 c -0.039569,-0.04037 -0.071943,-0.1593713 -0.071943,-0.2644468 0,-0.1050755 -0.052579,-0.2242002 -0.116842,-0.2647214 C 1.9143237,1.719322 1.901015,1.7729154 1.952176,1.937374 2.0796447,2.3471274 1.7572799,2.1315706 1.6191451,1.714685 1.5236543,1.4264975 1.4812538,1.3859636 1.4251061,1.5291879 c -0.039516,0.1007996 -0.036927,0.2461585 0.00575,0.3230198 0.052769,0.095027 0.042433,0.1052915 -0.032298,0.032074 C 1.246314,1.735117 1.1285302,1.1098471 1.2395,1.0398747 1.289531,1.0083277 1.5086642,1.1490735 1.7264619,1.352644 c 0.2177974,0.2035705 0.4353046,0.3701282 0.483349,0.3701282 0.1218251,0 0.2071641,0.3812211 0.1182112,0.5280652 -0.040384,0.066666 -0.1057994,0.088181 -0.145368,0.04781 z M 1.5245823,0.95967756 c -0.038999,-0.06438 -0.018057,-0.1709768 0.046539,-0.23688118 0.086239,-0.0879859 0.1174471,-0.0568821 0.1174471,0.11705508 0,0.25997824 -0.054821,0.30003674 -0.1639861,0.1198261 z"
     id="path50"
     inkscape:connector-curvature="0" />
  <path
     style="fill:#000000;stroke-width:0.10659905"
     d=""
     id="path48"
     inkscape:connector-curvature="0" />
  <path
     style="fill:#000000;stroke-width:0.10659905"
     d=""
     id="path46"
     inkscape:connector-curvature="0" />
  <path
     style="fill:#000000;stroke-width:0.10659905"
     d=""
     id="path38"
     inkscape:connector-curvature="0" />
</svg>
