<?xml version="1.0" encoding="UTF-8" standalone="no"?>
<!-- Created with Inkscape (http://www.inkscape.org/) -->

<svg
   xmlns:dc="http://purl.org/dc/elements/1.1/"
   xmlns:cc="http://creativecommons.org/ns#"
   xmlns:rdf="http://www.w3.org/1999/02/22-rdf-syntax-ns#"
   xmlns:svg="http://www.w3.org/2000/svg"
   xmlns="http://www.w3.org/2000/svg"
   xmlns:sodipodi="http://sodipodi.sourceforge.net/DTD/sodipodi-0.dtd"
   xmlns:inkscape="http://www.inkscape.org/namespaces/inkscape"
   version="1.1"
   id="svg3714"
   width="42"
   height="37"
   viewBox="0 0 42 37"
   sodipodi:docname="thumb.svg"
   inkscape:version="0.92.1 r15371">
  <metadata
     id="metadata3720">
    <rdf:RDF>
      <cc:Work
         rdf:about="">
        <dc:format>image/svg+xml</dc:format>
        <dc:type
           rdf:resource="http://purl.org/dc/dcmitype/StillImage" />
        <dc:title></dc:title>
      </cc:Work>
    </rdf:RDF>
  </metadata>
  <defs
     id="defs3718" />
  <sodipodi:namedview
     pagecolor="#ffffff"
     bordercolor="#666666"
     borderopacity="1"
     objecttolerance="10"
     gridtolerance="10"
     guidetolerance="10"
     inkscape:pageopacity="0"
     inkscape:pageshadow="2"
     inkscape:window-width="1920"
     inkscape:window-height="1001"
     id="namedview3716"
     showgrid="false"
     inkscape:zoom="6.3783784"
     inkscape:cx="21"
     inkscape:cy="18.5"
     inkscape:window-x="-9"
     inkscape:window-y="-9"
     inkscape:window-maximized="1"
     inkscape:current-layer="svg3714" />
  <path
     style="fill:#f1e6a3"
     d="m 5.3592865,36.116066 c -0.661378,-0.661379 -1.202507,-1.864574 -1.202507,-2.673766 0,-0.809193 -0.725855,-2.273321 -1.613012,-3.253618 -1.041426,-1.150762 -1.76798308,-4.2573 -2.05033908,-8.766617 -0.50901,-8.129069 0.361725,-9.108506 8.09761008,-9.108506 H 13.15678 V 8.2478178 c 0,-5.2734363 1.485033,-7.93425848 4.428195,-7.93425848 2.350841,0 3.571805,1.65623108 3.571805,4.84513578 0,0.9248585 1.57308,4.0174499 3.495732,6.8724249 l 3.495733,5.190865 6.754267,0.295787 6.754268,0.295787 v 9.5 9.5 l -17.547493,0.252507 c -12.629963,0.181745 -17.8844845,-0.08449 -18.7500005,-0.95 z M 26.508797,30.063559 c 1.097298,-9.135469 0.795796,-10.642075 -3.352017,-16.75 -2.2,-3.239643 -4,-6.7883945 -4,-7.8861133 0,-1.0977188 -0.500312,-2.3050619 -1.111803,-2.6829847 -1.8317,-1.1320525 -2.967422,1.769932 -2.668969,6.8197199 l 0.280772,4.7506211 -6.2813855,-6.21e-4 c -4.781099,-4.74e-4 -6.425026,0.373702 -6.882782,1.566595 -0.330769,0.86197 -0.123897,2.044719 0.459715,2.628331 0.74815,0.74815 0.713579,1.622138 -0.117217,2.963295 -0.93296,1.506079 -0.887692,2.083048 0.217387,2.770745 0.767644,0.477709 1.123993,1.576664 0.791886,2.442121 -0.362072,0.943543 0.177605,2.120899 1.347921,2.94062 1.073464,0.751883 1.674023,1.64479 1.334575,1.984238 -0.339447,0.339447 -0.350708,1.311584 -0.02502,2.160305 0.475553,1.239271 2.441546,1.543128 9.9842475,1.543128 h 9.392094 z m 13.647983,-2.75 v -8 h -5.417941 -5.417941 l -0.369244,7.25 c -0.203084,3.9875 -0.213453,7.5875 -0.02304,8 0.190411,0.4125 2.794644,0.75 5.787185,0.75 h 5.440981 z"
     id="path3724"
     inkscape:connector-curvature="0" />
</svg>
